<?xml version="1.0" encoding="UTF-8"?>
<svg width="200px" height="200px" viewBox="0 0 200 200" version="1.1" xmlns="http://www.w3.org/2000/svg" xmlns:xlink="http://www.w3.org/1999/xlink">
    <title>Group 2</title>
    <g id="Page-1" stroke="none" stroke-width="1" fill="none" fill-rule="evenodd">
        <g id="Group-2">
            <rect id="Rectangle" x="0" y="0" width="200" height="200"></rect>
            <g id="g8" transform="translate(101.000000, 106.786764) scale(-1, 1) rotate(-180.000000) translate(-101.000000, -106.786764) translate(2.000000, 42.000000)" fill="#0E5989" fill-rule="nonzero">
                <g id="g10" transform="translate(-0.000000, 0.000000)">
                    <path d="M179.023017,54.097081 C172.993626,54.097081 153.277841,52.6586833 153.277841,58.8998852 C153.277841,65.1421979 172.993626,76.7171338 179.023017,76.7171338 C185.061296,76.7171338 189.950801,71.6466432 189.950801,65.4009984 C189.950801,59.1542428 185.061296,54.097081 179.023017,54.097081 L179.023017,54.097081 Z M184.438025,31.8802238 C184.18805,31.1849057 183.808089,30.4906983 183.28703,29.7876051 C182.773749,29.0878441 182.110483,28.3858616 181.241682,27.7105366 C179.536298,26.3732156 177.115432,25.1214208 173.689112,24.0628934 L161.343693,24.0828866 L159.262792,24.0828866 L157.181891,24.0828866 L147.676185,24.0828866 L161.728098,40.2029391 L182.793747,40.2029391 C182.793747,40.2062693 185.970093,36.2231851 184.438025,31.8802238 L184.438025,31.8802238 Z M131.956663,43.317429 L66.0466579,43.317429 C59.1773522,43.317429 53.6001381,51.7856481 53.6001381,62.2298591 L98.9977719,62.2298591 L99.0055489,62.2298591 L144.403183,62.2298591 C144.403183,51.7812052 138.82708,43.317429 131.956663,43.317429 L131.956663,43.317429 Z M129.298043,24.0784437 L68.7063891,24.0784437 C62.3903608,24.0784437 57.2619902,29.2011387 57.2619902,35.5156489 L98.9977719,35.5156489 L99.0055489,35.5156489 L140.742442,35.5156489 C140.742442,29.1978065 135.614071,24.0784437 129.298043,24.0784437 L129.298043,24.0784437 Z M40.8225407,24.0862188 L36.6607391,24.0862188 L24.3153202,24.0662256 C20.8878888,25.129196 18.4714664,26.3776585 16.7616392,27.7149796 C15.8972821,28.3891938 15.2351268,29.092287 14.7174014,29.7909373 C14.1963429,30.4940305 13.8163813,31.1893486 13.5697396,31.8846667 C12.0343392,36.2231851 15.2062409,40.2107122 15.2062409,40.2107122 L36.2763335,40.2107122 L50.3238026,24.0906617 L40.8225407,24.0906617 L40.8225407,24.0862188 Z M8.05363045,65.4009984 C8.05363045,71.6466432 12.9431363,76.7171338 18.9803039,76.7171338 C25.0141384,76.7171338 44.7299235,65.1466408 44.7299235,58.8998852 C44.7299235,52.6542404 25.0141384,54.097081 18.9803039,54.097081 C12.9431363,54.097081 8.05363045,59.1509106 8.05363045,65.4009984 L8.05363045,65.4009984 Z M55.0111066,115.473898 C57.5286299,117.57096 61.9292963,119.162638 64.1235189,119.162638 L98.9977719,119.162638 L99.0055489,119.162638 L133.880913,119.162638 C136.075136,119.162638 140.475802,117.57096 142.993325,115.473898 L166.467619,92.7283326 L99.0055489,92.7283326 L98.9977719,92.7283326 L31.5401455,92.7283326 L55.0111066,115.473898 Z M185.731228,88.2076542 C185.597908,88.3609352 185.484586,88.5097732 185.327935,88.659722 L178.388637,95.3541025 C184.143611,96.6592124 190.33854,101.478678 190.33854,106.423656 C190.33854,112.185021 182.344903,114.229879 175.515594,114.229879 C168.382981,114.229879 167.555287,109.341548 167.466407,105.887172 L149.563772,123.14239 C145.927473,126.742272 139.032614,129.573527 133.876469,129.573527 L99.0055489,129.573527 L98.9977719,129.573527 L64.1235189,129.573527 C58.9707064,129.573527 52.0769587,126.742272 48.4362156,123.14239 L30.5380246,105.887172 C30.4447007,109.341548 29.6170066,114.229879 22.4888381,114.229879 C15.6550844,114.229879 7.66144787,112.185021 7.66144787,106.423656 C7.66144787,101.478678 13.8608213,96.6592124 19.6146842,95.3541025 L12.6764965,88.659722 C12.5187347,88.5097732 12.4098568,88.3609352 12.272093,88.2076542 C4.84950985,81.859822 0,70.0993939 0,61.5589771 L0,36.1909738 C0,30.0297446 2.42864342,24.4427637 6.35269126,20.2764088 L6.35269126,10.4431003 C6.35269126,4.69062034 11.1688711,0 17.0938279,0 L30.0814041,0 C36.0052498,0 40.8180967,4.68173449 40.8180967,10.4431003 L40.8180967,12.9600185 L98.9977719,12.9600185 L99.0055489,12.9600185 L157.181891,12.9600185 L157.181891,10.4431003 C157.181891,4.68173449 161.994738,0 167.923028,0 L180.90616,0 C186.83445,0 191.647297,4.69062034 191.647297,10.4431003 L191.647297,20.2764088 C195.571344,24.4427637 198,30.0297446 198,36.1909738 L198,61.5589771 C198.004432,70.0993939 193.154922,81.859822 185.731228,88.2076542" id="path28"></path>
                </g>
            </g>
        </g>
    </g>
</svg>