<?xml version="1.0" encoding="UTF-8"?>
<svg width="519px" height="180px" viewBox="0 0 519 180" version="1.1" xmlns="http://www.w3.org/2000/svg" xmlns:xlink="http://www.w3.org/1999/xlink">
    <title>Carzo Logo Light</title>
    <g id="Page-1" stroke="none" stroke-width="1" fill="none" fill-rule="evenodd">
        <g id="Carzo-Logo-Light" transform="translate(0.500000, 0.000000)" fill="#FFFFFF">
            <g id="29028119_7492424" transform="translate(382.500000, 56.000000)" fill-rule="nonzero">
                <g id="g8" transform="translate(68.000001, 44.500000) scale(-1, 1) rotate(-180.000000) translate(-68.000001, -44.500000) translate(0.000000, 0.000000)">
                    <g id="g10" transform="translate(0.000000, 0.000000)">
                        <path d="M122.965306,37.1575916 C118.823907,37.1575916 105.281751,36.1696012 105.281751,40.4564875 C105.281751,44.7441366 118.823907,52.6945978 122.965306,52.6945978 C127.112811,52.6945978 130.47126,49.2118365 130.47126,44.9218986 C130.47126,40.6311977 127.112811,37.1575916 122.965306,37.1575916 L122.965306,37.1575916 Z M126.684706,21.8975278 C126.513006,21.4199355 126.252023,20.9431062 125.894124,20.4601735 C125.541567,19.9795296 125.08599,19.4973598 124.489238,19.0335002 C123.317863,18.1149362 121.655046,17.2551176 119.301614,16.5280483 L110.821932,16.541781 L109.392626,16.541781 L107.963321,16.541781 L101.434149,16.541781 L111.085968,27.6141404 L125.555303,27.6141404 C125.555303,27.6164278 127.737035,24.8805719 126.684706,21.8975278 L126.684706,21.8975278 Z M90.6369012,29.753386 L45.3653819,29.753386 C40.6470708,29.753386 36.816257,35.5699407 36.816257,42.7437423 L67.9984706,42.7437423 L68.0038124,42.7437423 L99.186026,42.7437423 C99.186026,35.566889 95.3559754,29.753386 90.6369012,29.753386 L90.6369012,29.753386 Z M88.8107782,16.5387293 L47.192268,16.5387293 C42.8539858,16.5387293 39.3314686,20.0573481 39.3314686,24.3945875 L67.9984706,24.3945875 L68.0038124,24.3945875 L96.6715775,24.3945875 C96.6715775,20.0550593 93.1490603,16.5387293 88.8107782,16.5387293 L88.8107782,16.5387293 Z M28.0397253,16.5440697 L25.1811141,16.5440697 L16.7014323,16.5303371 C14.347237,17.2604581 12.6874721,18.1179879 11.5130453,19.0365519 C10.9193455,19.4996485 10.4645317,19.9825813 10.1089223,20.4624623 C9.75102358,20.945395 9.49003985,21.4229872 9.32062936,21.9005795 C8.26601091,24.8805719 10.4446909,27.6194795 10.4446909,27.6194795 L24.9170779,27.6194795 L34.5658447,16.5471215 L28.0397253,16.5471215 L28.0397253,16.5440697 Z M5.53178666,44.9218986 C5.53178666,49.2118365 8.89023514,52.6945978 13.0369766,52.6945978 C17.1814287,52.6945978 30.7235843,44.7471883 30.7235843,40.4564875 C30.7235843,36.1665495 17.1814287,37.1575916 13.0369766,37.1575916 C8.89023514,37.1575916 5.53178666,40.6289089 5.53178666,44.9218986 L5.53178666,44.9218986 Z M37.7854071,79.315406 C39.5146151,80.755812 42.5372951,81.8490862 44.0444379,81.8490862 L67.9984706,81.8490862 L68.0038124,81.8490862 L91.9586082,81.8490862 C93.4657511,81.8490862 96.4884311,80.755812 98.217639,79.315406 L114.341397,63.692189 L68.0038124,63.692189 L67.9984706,63.692189 L21.6639387,63.692189 L37.7854071,79.315406 Z M127.572967,60.5870765 C127.481393,60.6923604 127.403556,60.7945926 127.295957,60.8975878 L122.52957,65.4957482 C126.482482,66.3921873 130.737585,69.7025271 130.737585,73.0990776 C130.737585,77.0563794 125.247006,78.4609279 120.556167,78.4609279 C115.656999,78.4609279 115.088482,75.1032866 115.027433,72.7305839 L102.730673,84.5826533 C100.233013,87.0552993 95.4971508,89 91.9555558,89 L68.0038124,89 L67.9984706,89 L44.0444379,89 C40.5051323,89 35.7700328,87.0552993 33.2693203,84.5826533 L20.9756132,72.7305839 C20.9115119,75.1032866 20.3429947,78.4609279 15.446879,78.4609279 C10.7529874,78.4609279 5.26240872,77.0563794 5.26240872,73.0990776 C5.26240872,69.7025271 9.52056426,66.3921873 13.4727126,65.4957482 L8.70708867,60.8975878 C8.598727,60.7945926 8.52394219,60.6923604 8.42931651,60.5870765 C3.33097652,56.2269493 0,48.1490793 0,42.2829344 L0,24.8584471 C0,20.6264916 1.66815914,16.7889693 4.36346477,13.9272305 L4.36346477,7.17303868 C4.36346477,3.22184028 7.67154797,0 11.7412153,0 L20.6619748,0 C24.730879,0 28.0366729,3.21573687 28.0366729,7.17303868 L28.0366729,8.90183102 L67.9984706,8.90183102 L68.0038124,8.90183102 L107.963321,8.90183102 L107.963321,7.17303868 C107.963321,3.21573687 111.269115,0 115.341071,0 L124.258778,0 C128.330735,0 131.636529,3.22184028 131.636529,7.17303868 L131.636529,13.9272305 C134.331835,16.7889693 136,20.6264916 136,24.8584471 L136,42.2829344 C136.003046,48.1490793 132.67207,56.2269493 127.572967,60.5870765" id="path28"></path>
                    </g>
                </g>
            </g>
            <text id="Carzo" font-family="Gabarito-SemiBold, Gabarito" font-size="150" font-weight="500" letter-spacing="-3.85">
                <tspan x="5.68434189e-14" y="141">Carzo</tspan>
            </text>
        </g>
    </g>
</svg>